<svg width="48" height="48" viewBox="0 0 48 48" fill="none" xmlns="http://www.w3.org/2000/svg">
<path d="M0 0H40C44.4183 0 48 3.58172 48 8V48L0 0Z" fill="#2DB55D"/>
<path fill-rule="evenodd" clip-rule="evenodd" d="M40.6666 14.0041V13.3141C40.6666 12.8538 41.0396 12.4807 41.4999 12.4807C41.9601 12.4807 42.3332 12.8538 42.3332 13.3141V14.0045C42.3311 17.6951 39.9018 20.9447 36.3627 21.9911C32.8236 23.0375 29.0177 21.6315 27.009 18.5354C25.0003 15.4394 25.2673 11.3909 27.6651 8.58544C30.063 5.77997 34.0205 4.88582 37.3916 6.38788C37.8119 6.57519 38.0009 7.06784 37.8136 7.48823C37.6263 7.90863 37.1336 8.09757 36.7132 7.91026C34.0164 6.70861 30.8503 7.42393 28.9321 9.66831C27.0138 11.9127 26.8002 15.1515 28.4072 17.6283C30.0141 20.1051 33.0588 21.23 35.8901 20.3929C38.7214 19.5557 40.6649 16.956 40.6666 14.0041ZM31.1606 13.0431C31.486 12.7177 32.0137 12.7177 32.3391 13.0431L33.9996 14.7036L40.9103 7.78593C41.2356 7.46033 41.7632 7.46006 42.0888 7.78534C42.4144 8.11061 42.4147 8.63825 42.0894 8.96385L34.5894 16.4713C34.264 16.7971 33.7362 16.7972 33.4106 16.4716L31.1606 14.2216C30.8352 13.8962 30.8352 13.3686 31.1606 13.0431Z" fill="white"/>
</svg>
